<?xml version="1.0" standalone="no"?>
<!DOCTYPE svg PUBLIC "-//W3C//DTD SVG 20010904//EN"
 "http://www.w3.org/TR/2001/REC-SVG-20010904/DTD/svg10.dtd">
<svg version="1.0" xmlns="http://www.w3.org/2000/svg"
 width="266.000000pt" height="266.000000pt" viewBox="0 0 266.000000 266.000000"
 preserveAspectRatio="xMidYMid meet">
<metadata>
Created by potrace 1.14, written by Peter Selinger 2001-2017
</metadata>
<g transform="translate(0.000000,266.000000) scale(0.100000,-0.100000)"
fill="#000000" stroke="none">
<path d="M1257 2654 c-1 -1 -33 -5 -72 -8 -238 -18 -483 -116 -675 -271 -75
-60 -181 -164 -219 -215 -14 -19 -29 -37 -32 -40 -18 -14 -106 -162 -140 -235
-40 -86 -92 -266 -105 -365 -22 -170 -6 -397 40 -567 89 -333 367 -661 693
-818 79 -38 197 -80 252 -90 19 -3 37 -7 40 -9 3 -2 30 -7 60 -11 30 -4 63 -9
75 -11 30 -6 264 -6 309 1 20 3 54 7 74 10 111 16 261 64 368 118 54 26 162
93 175 107 3 3 25 21 50 40 145 111 285 281 368 447 111 221 155 473 129 738
-25 259 -121 488 -288 689 -233 280 -523 442 -863 481 -57 7 -234 14 -239 9z
m161 -809 c194 -25 386 -212 423 -410 15 -81 6 -207 -20 -280 -57 -161 -214
-300 -379 -334 -405 -84 -739 294 -606 686 52 153 205 291 360 327 105 24 116
25 222 11z"/>
</g>
</svg>
